<?xml version="1.0" encoding="UTF-8"?>
<svg xmlns="http://www.w3.org/2000/svg" xmlns:xlink="http://www.w3.org/1999/xlink" width="230.38pt" height="72pt" viewBox="0 0 230.38 72" version="1.2">
<g id="surface1">
<path style=" stroke:none;fill-rule:nonzero;fill:rgb(75.389099%,75.389099%,75.389099%);fill-opacity:1;" d="M 6.785156 68.875 L 28.703125 68.875 L 28.703125 46.957031 L 6.785156 46.957031 Z M 6.785156 68.875 "/>
<path style=" stroke:none;fill-rule:nonzero;fill:rgb(100%,100%,0%);fill-opacity:1;" d="M 28.703125 68.875 L 50.617188 68.875 L 50.617188 46.957031 L 28.703125 46.957031 Z M 28.703125 68.875 "/>
<path style=" stroke:none;fill-rule:nonzero;fill:rgb(100%,100%,0%);fill-opacity:1;" d="M 50.617188 68.875 L 72.535156 68.875 L 72.535156 46.957031 L 50.617188 46.957031 Z M 50.617188 68.875 "/>
<path style=" stroke:none;fill-rule:nonzero;fill:rgb(100%,100%,0%);fill-opacity:1;" d="M 6.785156 46.957031 L 28.703125 46.957031 L 28.703125 25.042969 L 6.785156 25.042969 Z M 6.785156 46.957031 "/>
<path style=" stroke:none;fill-rule:nonzero;fill:rgb(100%,100%,0%);fill-opacity:1;" d="M 28.703125 46.957031 L 50.617188 46.957031 L 50.617188 25.042969 L 28.703125 25.042969 Z M 28.703125 46.957031 "/>
<path style=" stroke:none;fill-rule:nonzero;fill:rgb(75.389099%,75.389099%,75.389099%);fill-opacity:1;" d="M 50.617188 46.957031 L 72.535156 46.957031 L 72.535156 25.042969 L 50.617188 25.042969 Z M 50.617188 46.957031 "/>
<path style=" stroke:none;fill-rule:nonzero;fill:rgb(75.389099%,75.389099%,75.389099%);fill-opacity:1;" d="M 6.785156 25.042969 L 28.703125 25.042969 L 28.703125 3.125 L 6.785156 3.125 Z M 6.785156 25.042969 "/>
<path style=" stroke:none;fill-rule:nonzero;fill:rgb(100%,100%,0%);fill-opacity:1;" d="M 28.703125 25.042969 L 50.617188 25.042969 L 50.617188 3.125 L 28.703125 3.125 Z M 28.703125 25.042969 "/>
<path style=" stroke:none;fill-rule:nonzero;fill:rgb(75.389099%,75.389099%,75.389099%);fill-opacity:1;" d="M 50.617188 25.042969 L 72.535156 25.042969 L 72.535156 3.125 L 50.617188 3.125 Z M 50.617188 25.042969 "/>
<path style="fill:none;stroke-width:2.5;stroke-linecap:round;stroke-linejoin:round;stroke:rgb(0%,0%,0%);stroke-opacity:1;stroke-miterlimit:10;" d="M 68.034165 30.365266 L 68.034165 689.634734 " transform="matrix(0.0997316,0,0,-0.0997316,0,71.903377)"/>
<path style="fill:none;stroke-width:2.5;stroke-linecap:round;stroke-linejoin:round;stroke:rgb(0%,0%,0%);stroke-opacity:1;stroke-miterlimit:10;" d="M 287.80371 30.365266 L 287.80371 689.634734 " transform="matrix(0.0997316,0,0,-0.0997316,0,71.903377)"/>
<path style="fill:none;stroke-width:2.5;stroke-linecap:round;stroke-linejoin:round;stroke:rgb(0%,0%,0%);stroke-opacity:1;stroke-miterlimit:10;" d="M 507.534088 30.365266 L 507.534088 689.634734 " transform="matrix(0.0997316,0,0,-0.0997316,0,71.903377)"/>
<path style="fill:none;stroke-width:2.5;stroke-linecap:round;stroke-linejoin:round;stroke:rgb(0%,0%,0%);stroke-opacity:1;stroke-miterlimit:10;" d="M 727.303633 30.365266 L 727.303633 689.634734 " transform="matrix(0.0997316,0,0,-0.0997316,0,71.903377)"/>
<path style="fill:none;stroke-width:2.5;stroke-linecap:round;stroke-linejoin:round;stroke:rgb(0%,0%,0%);stroke-opacity:1;stroke-miterlimit:10;" d="M 68.034165 30.365266 L 727.303633 30.365266 " transform="matrix(0.0997316,0,0,-0.0997316,0,71.903377)"/>
<path style="fill:none;stroke-width:2.5;stroke-linecap:round;stroke-linejoin:round;stroke:rgb(0%,0%,0%);stroke-opacity:1;stroke-miterlimit:10;" d="M 68.034165 250.134811 L 727.303633 250.134811 " transform="matrix(0.0997316,0,0,-0.0997316,0,71.903377)"/>
<path style="fill:none;stroke-width:2.5;stroke-linecap:round;stroke-linejoin:round;stroke:rgb(0%,0%,0%);stroke-opacity:1;stroke-miterlimit:10;" d="M 68.034165 469.865189 L 727.303633 469.865189 " transform="matrix(0.0997316,0,0,-0.0997316,0,71.903377)"/>
<path style="fill:none;stroke-width:2.5;stroke-linecap:round;stroke-linejoin:round;stroke:rgb(0%,0%,0%);stroke-opacity:1;stroke-miterlimit:10;" d="M 68.034165 689.634734 L 727.303633 689.634734 " transform="matrix(0.0997316,0,0,-0.0997316,0,71.903377)"/>
<path style=" stroke:none;fill-rule:nonzero;fill:rgb(100%,0%,0%);fill-opacity:1;" d="M 39.660156 36 L 43.824219 36 C 43.824219 33.699219 41.960938 31.835938 39.660156 31.835938 C 37.359375 31.835938 35.496094 33.699219 35.496094 36 C 35.496094 38.300781 37.359375 40.164062 39.660156 40.164062 C 41.960938 40.164062 43.824219 38.300781 43.824219 36 C 43.824219 35.859375 43.816406 35.722656 43.804688 35.585938 "/>
<path style="fill:none;stroke-width:5;stroke-linecap:round;stroke-linejoin:round;stroke:rgb(100%,0%,0%);stroke-opacity:1;stroke-miterlimit:10;" d="M 825.379366 360 L 1478.382014 360 " transform="matrix(0.0997316,0,0,-0.0997316,0,71.903377)"/>
<path style=" stroke:none;fill-rule:nonzero;fill:rgb(100%,0%,0%);fill-opacity:1;" d="M 133.765625 33.265625 L 147.441406 36 L 133.765625 38.734375 "/>
<path style="fill:none;stroke-width:5;stroke-linecap:round;stroke-linejoin:round;stroke:rgb(100%,0%,0%);stroke-opacity:1;stroke-miterlimit:10;" d="M 1341.256158 387.417338 L 1478.382014 360 L 1341.256158 332.582662 L 1341.256158 387.417338 " transform="matrix(0.0997316,0,0,-0.0997316,0,71.903377)"/>
<path style=" stroke:none;fill-rule:nonzero;fill:rgb(75.389099%,75.389099%,75.389099%);fill-opacity:1;" d="M 157.222656 68.875 L 179.136719 68.875 L 179.136719 46.957031 L 157.222656 46.957031 Z M 157.222656 68.875 "/>
<path style=" stroke:none;fill-rule:nonzero;fill:rgb(75.389099%,75.389099%,75.389099%);fill-opacity:1;" d="M 179.136719 68.875 L 201.054688 68.875 L 201.054688 46.957031 L 179.136719 46.957031 Z M 179.136719 68.875 "/>
<path style=" stroke:none;fill-rule:nonzero;fill:rgb(100%,100%,0%);fill-opacity:1;" d="M 201.054688 68.875 L 222.972656 68.875 L 222.972656 46.957031 L 201.054688 46.957031 Z M 201.054688 68.875 "/>
<path style=" stroke:none;fill-rule:nonzero;fill:rgb(75.389099%,75.389099%,75.389099%);fill-opacity:1;" d="M 157.222656 46.957031 L 179.136719 46.957031 L 179.136719 25.042969 L 157.222656 25.042969 Z M 157.222656 46.957031 "/>
<path style=" stroke:none;fill-rule:nonzero;fill:rgb(75.389099%,75.389099%,75.389099%);fill-opacity:1;" d="M 179.136719 46.957031 L 201.054688 46.957031 L 201.054688 25.042969 L 179.136719 25.042969 Z M 179.136719 46.957031 "/>
<path style=" stroke:none;fill-rule:nonzero;fill:rgb(100%,100%,0%);fill-opacity:1;" d="M 201.054688 46.957031 L 222.972656 46.957031 L 222.972656 25.042969 L 201.054688 25.042969 Z M 201.054688 46.957031 "/>
<path style=" stroke:none;fill-rule:nonzero;fill:rgb(75.389099%,75.389099%,75.389099%);fill-opacity:1;" d="M 157.222656 25.042969 L 179.136719 25.042969 L 179.136719 3.125 L 157.222656 3.125 Z M 157.222656 25.042969 "/>
<path style=" stroke:none;fill-rule:nonzero;fill:rgb(75.389099%,75.389099%,75.389099%);fill-opacity:1;" d="M 179.136719 25.042969 L 201.054688 25.042969 L 201.054688 3.125 L 179.136719 3.125 Z M 179.136719 25.042969 "/>
<path style=" stroke:none;fill-rule:nonzero;fill:rgb(75.389099%,75.389099%,75.389099%);fill-opacity:1;" d="M 201.054688 25.042969 L 222.972656 25.042969 L 222.972656 3.125 L 201.054688 3.125 Z M 201.054688 25.042969 "/>
<path style="fill:none;stroke-width:2.5;stroke-linecap:round;stroke-linejoin:round;stroke:rgb(0%,0%,0%);stroke-opacity:1;stroke-miterlimit:10;" d="M 1576.457748 30.365266 L 1576.457748 689.634734 " transform="matrix(0.0997316,0,0,-0.0997316,0,71.903377)"/>
<path style="fill:none;stroke-width:2.5;stroke-linecap:round;stroke-linejoin:round;stroke:rgb(0%,0%,0%);stroke-opacity:1;stroke-miterlimit:10;" d="M 1796.188125 30.365266 L 1796.188125 689.634734 " transform="matrix(0.0997316,0,0,-0.0997316,0,71.903377)"/>
<path style="fill:none;stroke-width:2.5;stroke-linecap:round;stroke-linejoin:round;stroke:rgb(0%,0%,0%);stroke-opacity:1;stroke-miterlimit:10;" d="M 2015.95767 30.365266 L 2015.95767 689.634734 " transform="matrix(0.0997316,0,0,-0.0997316,0,71.903377)"/>
<path style="fill:none;stroke-width:2.5;stroke-linecap:round;stroke-linejoin:round;stroke:rgb(0%,0%,0%);stroke-opacity:1;stroke-miterlimit:10;" d="M 2235.727216 30.365266 L 2235.727216 689.634734 " transform="matrix(0.0997316,0,0,-0.0997316,0,71.903377)"/>
<path style="fill:none;stroke-width:2.5;stroke-linecap:round;stroke-linejoin:round;stroke:rgb(0%,0%,0%);stroke-opacity:1;stroke-miterlimit:10;" d="M 1576.457748 30.365266 L 2235.727216 30.365266 " transform="matrix(0.0997316,0,0,-0.0997316,0,71.903377)"/>
<path style="fill:none;stroke-width:2.5;stroke-linecap:round;stroke-linejoin:round;stroke:rgb(0%,0%,0%);stroke-opacity:1;stroke-miterlimit:10;" d="M 1576.457748 250.134811 L 2235.727216 250.134811 " transform="matrix(0.0997316,0,0,-0.0997316,0,71.903377)"/>
<path style="fill:none;stroke-width:2.5;stroke-linecap:round;stroke-linejoin:round;stroke:rgb(0%,0%,0%);stroke-opacity:1;stroke-miterlimit:10;" d="M 1576.457748 469.865189 L 2235.727216 469.865189 " transform="matrix(0.0997316,0,0,-0.0997316,0,71.903377)"/>
<path style="fill:none;stroke-width:2.5;stroke-linecap:round;stroke-linejoin:round;stroke:rgb(0%,0%,0%);stroke-opacity:1;stroke-miterlimit:10;" d="M 1576.457748 689.634734 L 2235.727216 689.634734 " transform="matrix(0.0997316,0,0,-0.0997316,0,71.903377)"/>
</g>
</svg>
